<svg width="341" height="237" viewBox="0 0 341 237" fill="none" xmlns="http://www.w3.org/2000/svg">
<path fill-rule="evenodd" clip-rule="evenodd" d="M94.9593 227.168C64.6403 214.841 41.9429 180.704 0 0L180 142C195.843 122.293 205.606 113.448 215.345 110.313C223.444 107.706 232.645 109.577 239.254 114.936C251.941 125.223 259.551 146.816 270 188L316 67.5L341 57L270 236.5L184 170C160.497 199.542 145.017 217.795 129.728 226.569C119.21 232.605 106.193 231.735 94.9593 227.168ZM252 200L195 154C204.455 139.785 210.426 132.171 218.982 129.188C222.095 128.102 225.525 129.102 227.821 131.468C238.147 142.113 243.831 159.786 252 200ZM29 47.5C60.1289 164.895 77.0513 199.796 100.289 211.27C105.808 213.995 112.301 214.594 118.011 212.296C131.148 207.007 144.411 192.003 168.5 158L29 47.5Z" fill="#D8B125"/>
</svg>
