<svg width="797" height="240" viewBox="0 0 797 240" fill="none" xmlns="http://www.w3.org/2000/svg">
<path fill-rule="evenodd" clip-rule="evenodd" d="M94.9593 227.168C64.6403 214.841 41.9429 180.704 0 0L180 142C195.843 122.293 205.606 113.448 215.345 110.313C223.444 107.706 232.645 109.577 239.254 114.936C251.941 125.223 259.551 146.816 270 188L316 67.5L341 57L270 236.5L184 170C160.497 199.542 145.017 217.795 129.728 226.569C119.21 232.605 106.193 231.735 94.9593 227.168ZM252 200L195 154C204.455 139.785 210.426 132.171 218.982 129.188C222.095 128.102 225.525 129.102 227.821 131.468C238.147 142.113 243.831 159.786 252 200ZM29 47.5C60.1289 164.895 77.0513 199.796 100.289 211.27C105.808 213.995 112.301 214.594 118.011 212.296C131.148 207.007 144.411 192.003 168.5 158L29 47.5Z" fill="#D8B125"/>
<path d="M329.5 240H310L377.5 60L459.5 240H440L378.5 108.5L329.5 240Z" fill="#D8B125"/>
<path d="M418.5 77L411 59H588.5V77H508V239.5H489V77H418.5Z" fill="#D8B125"/>
<path d="M579 223.814C579 217.955 580.499 213.846 583.497 211.488C586.566 209.058 590.278 207.843 594.633 207.843C598.987 207.843 602.699 209.058 605.768 211.488C608.909 213.846 610.479 217.955 610.479 223.814C610.479 229.531 608.909 233.676 605.768 236.248C602.699 238.749 598.987 240 594.633 240C590.278 240 586.566 238.749 583.497 236.248C580.499 233.676 579 229.531 579 223.814Z" fill="#D8B125"/>
<path d="M689.285 116.197C704.275 116.197 715.589 119.52 723.227 126.166C730.936 132.811 734.791 143.173 734.791 157.25V237.106H716.91L712.091 220.277H711.235C707.88 224.565 704.418 228.102 700.849 230.889C697.28 233.676 693.139 235.748 688.428 237.106C683.788 238.535 678.114 239.25 671.404 239.25C664.337 239.25 658.02 237.963 652.452 235.391C646.884 232.747 642.494 228.745 639.282 223.386C636.07 218.026 634.464 211.238 634.464 203.02C634.464 190.8 638.996 181.618 648.062 175.472C657.199 169.327 670.975 165.933 689.392 165.289L709.95 164.539V158.322C709.95 150.104 708.023 144.245 704.168 140.743C700.385 137.242 695.031 135.491 688.107 135.491C682.182 135.491 676.436 136.349 670.868 138.064C665.301 139.779 659.876 141.887 654.593 144.388L646.456 126.594C652.238 123.522 658.805 121.021 666.157 119.091C673.581 117.162 681.29 116.197 689.285 116.197ZM709.843 180.403L694.531 180.939C681.968 181.368 673.153 183.512 668.084 187.37C663.016 191.229 660.482 196.517 660.482 203.234C660.482 209.094 662.231 213.381 665.729 216.097C669.227 218.741 673.831 220.063 679.541 220.063C688.25 220.063 695.459 217.598 701.17 212.667C706.952 207.665 709.843 200.34 709.843 190.693V180.403Z" fill="#D8B125"/>
<path d="M795.18 118.448V237.106H770.018V118.448H795.18ZM782.759 73C786.614 73 789.933 74.0362 792.717 76.1085C795.572 78.1808 797 81.7537 797 86.8273C797 91.8295 795.572 95.4024 792.717 97.5462C789.933 99.6185 786.614 100.655 782.759 100.655C778.762 100.655 775.371 99.6185 772.587 97.5462C769.875 95.4024 768.519 91.8295 768.519 86.8273C768.519 81.7537 769.875 78.1808 772.587 76.1085C775.371 74.0362 778.762 73 782.759 73Z" fill="#D8B125"/>
</svg>
